<svg width="22" height="22" viewBox="0 0 22 22" fill="none" xmlns="http://www.w3.org/2000/svg">
<path fill-rule="evenodd" clip-rule="evenodd" d="M6.2225 5.04761C6.275 5.82636 6.40625 6.58761 6.61625 7.31386L5.56625 8.36386C5.2075 7.31386 4.98 6.20261 4.90125 5.04761H6.2225ZM14.85 15.5651C15.5938 15.7751 16.355 15.9064 17.125 15.9589V17.2626C15.97 17.1839 14.8588 16.9564 13.8 16.6064L14.85 15.5651ZM7.0625 3.29761H4C3.51875 3.29761 3.125 3.69136 3.125 4.17261C3.125 12.3889 9.78375 19.0476 18 19.0476C18.4812 19.0476 18.875 18.6539 18.875 18.1726V15.1189C18.875 14.6376 18.4812 14.2439 18 14.2439C16.915 14.2439 15.8562 14.0689 14.8763 13.7451C14.7888 13.7101 14.6925 13.7014 14.605 13.7014C14.3775 13.7014 14.1587 13.7889 13.9837 13.9551L12.0588 15.8801C9.5825 14.6114 7.5525 12.5901 6.2925 10.1139L8.2175 8.18886C8.4625 7.94386 8.5325 7.60261 8.43625 7.29636C8.1125 6.31636 7.9375 5.26636 7.9375 4.17261C7.9375 3.69136 7.54375 3.29761 7.0625 3.29761Z" fill="#253993"/>
</svg>
