<svg width="32" height="33" viewBox="0 0 32 33" fill="none" xmlns="http://www.w3.org/2000/svg">
<path d="M16.0764 3.03923C20.3302 3.03923 20.834 3.05517 22.5144 3.13179C23.5248 3.14415 24.5256 3.32968 25.4732 3.6803C26.1604 3.94534 26.7846 4.35133 27.3054 4.87216C27.8262 5.39299 28.2322 6.0171 28.4972 6.70433C28.8479 7.65198 29.0334 8.65275 29.0458 9.66311C29.1216 11.3435 29.1383 11.8473 29.1383 16.1011C29.1383 20.3549 29.1224 20.8587 29.0458 22.5391C29.0334 23.5495 28.8479 24.5502 28.4972 25.4979C28.2322 26.1851 27.8262 26.8092 27.3054 27.3301C26.7846 27.8509 26.1604 28.2569 25.4732 28.5219C24.5256 28.8725 23.5248 29.0581 22.5144 29.0704C20.8348 29.1463 20.331 29.163 16.0764 29.163C11.8219 29.163 11.3181 29.1471 9.63842 29.0704C8.62806 29.0581 7.6273 28.8725 6.67964 28.5219C5.99242 28.2569 5.3683 27.8509 4.84748 27.3301C4.32665 26.8092 3.92065 26.1851 3.65562 25.4979C3.305 24.5502 3.11947 23.5495 3.10711 22.5391C3.03124 20.8587 3.01455 20.3549 3.01455 16.1011C3.01455 11.8473 3.03048 11.3435 3.10711 9.66311C3.11947 8.65275 3.305 7.65198 3.65562 6.70433C3.92065 6.0171 4.32665 5.39299 4.84748 4.87216C5.3683 4.35133 5.99242 3.94534 6.67964 3.6803C7.6273 3.32968 8.62806 3.14415 9.63842 3.13179C11.3189 3.05592 11.8226 3.03923 16.0764 3.03923ZM16.0764 0.168457C11.7521 0.168457 11.2073 0.186665 9.50793 0.264048C8.18562 0.29035 6.87735 0.540718 5.63876 1.0045C4.57625 1.40482 3.61389 2.03216 2.81881 2.84274C2.0075 3.6381 1.37963 4.60101 0.979059 5.6642C0.515274 6.90279 0.264907 8.21107 0.238605 9.53338C0.162739 11.2313 0.144531 11.776 0.144531 16.1004C0.144531 20.4247 0.162739 20.9694 0.240123 22.6688C0.266424 23.9912 0.516792 25.2994 0.980577 26.538C1.3807 27.6011 2.00805 28.564 2.81881 29.3595C3.61433 30.1703 4.57723 30.7976 5.64028 31.1977C6.87887 31.6615 8.18714 31.9119 9.50945 31.9382C11.2089 32.014 11.7513 32.0338 16.0779 32.0338C20.4046 32.0338 20.947 32.0156 22.6464 31.9382C23.9688 31.9119 25.277 31.6615 26.5156 31.1977C27.5736 30.7876 28.5344 30.1612 29.3365 29.3586C30.1386 28.556 30.7644 27.5948 31.1738 26.5365C31.6376 25.2979 31.8879 23.9896 31.9142 22.6673C31.9901 20.9694 32.0083 20.4247 32.0083 16.1004C32.0083 11.776 31.9901 11.2313 31.9127 9.53186C31.8864 8.20955 31.6361 6.90127 31.1723 5.66268C30.7722 4.59963 30.1448 3.63673 29.334 2.84122C28.5385 2.03046 27.5756 1.40311 26.5126 1.00298C25.274 0.5392 23.9657 0.288832 22.6434 0.262531C20.9455 0.186665 20.4008 0.168457 16.0764 0.168457Z" fill="#3953C9"/>
<path d="M16.0779 7.92218C14.4598 7.92218 12.878 8.40201 11.5325 9.301C10.1871 10.2 9.13849 11.4777 8.51926 12.9727C7.90003 14.4677 7.73801 16.1127 8.05369 17.6997C8.36937 19.2867 9.14858 20.7445 10.2928 21.8887C11.437 23.0329 12.8947 23.8121 14.4818 24.1278C16.0688 24.4435 17.7138 24.2815 19.2088 23.6622C20.7037 23.043 21.9815 21.9944 22.8805 20.6489C23.7795 19.3035 24.2593 17.7217 24.2593 16.1036C24.2593 13.9337 23.3973 11.8528 21.863 10.3185C20.3287 8.78415 18.2477 7.92218 16.0779 7.92218ZM16.0779 21.4142C15.0276 21.4142 14.0008 21.1028 13.1275 20.5192C12.2541 19.9357 11.5735 19.1063 11.1715 18.1359C10.7696 17.1655 10.6644 16.0977 10.8693 15.0675C11.0742 14.0374 11.58 13.0911 12.3227 12.3484C13.0654 11.6057 14.0117 11.0999 15.0418 10.895C16.072 10.6901 17.1398 10.7953 18.1102 11.1972C19.0806 11.5992 19.91 12.2798 20.4935 13.1532C21.0771 14.0265 21.3885 15.0532 21.3885 16.1036C21.3885 17.5121 20.829 18.8628 19.8331 19.8588C18.8371 20.8547 17.4864 21.4142 16.0779 21.4142Z" fill="#3953C9"/>
<path d="M24.5837 9.50884C25.6396 9.50884 26.4955 8.65288 26.4955 7.59701C26.4955 6.54113 25.6396 5.68518 24.5837 5.68518C23.5278 5.68518 22.6719 6.54113 22.6719 7.59701C22.6719 8.65288 23.5278 9.50884 24.5837 9.50884Z" fill="#3953C9"/>
</svg>
