<svg width="25" height="24" viewBox="0 0 25 24" fill="none" xmlns="http://www.w3.org/2000/svg">
<path fill-rule="evenodd" clip-rule="evenodd" d="M12.7516 0.0107422C5.9822 0.0107422 0.536133 5.45681 0.536133 12.2262C0.536133 17.6214 4.04808 22.2022 8.88338 23.8309C9.49415 23.9327 9.69774 23.5764 9.69774 23.2202C9.69774 22.9148 9.69774 22.1513 9.69774 21.1333C6.28759 21.8968 5.57502 19.5046 5.57502 19.5046C5.01514 18.0795 4.20078 17.7232 4.20078 17.7232C3.08102 16.9597 4.30257 16.9597 4.30257 16.9597C5.52412 17.0615 6.18579 18.2322 6.18579 18.2322C7.25465 20.1154 9.03607 19.5555 9.74864 19.2501C9.85044 18.4358 10.1558 17.9268 10.5121 17.6214C7.81452 17.316 4.96424 16.2472 4.96424 11.5646C4.96424 10.2412 5.42232 9.12145 6.23669 8.30709C6.13489 8.0017 5.67681 6.78015 6.33849 5.04963C6.33849 5.04963 7.35644 4.74424 9.69774 6.32207C10.6648 6.06758 11.7337 5.91489 12.7516 5.91489C13.7696 5.91489 14.8384 6.06758 15.8055 6.32207C18.1468 4.74424 19.1647 5.04963 19.1647 5.04963C19.8264 6.72926 19.4192 7.9508 19.2665 8.30709C20.03 9.17235 20.539 10.2412 20.539 11.5646C20.539 16.2472 17.6887 17.2651 14.9402 17.5705C15.3983 17.9268 15.7546 18.6902 15.7546 19.81C15.7546 21.4387 15.7546 22.7621 15.7546 23.1693C15.7546 23.4746 15.9582 23.8818 16.6198 23.78C21.4551 22.2022 24.9671 17.6214 24.9671 12.2262C24.9671 5.45681 19.521 0.0107422 12.7516 0.0107422Z" fill="#F4F5F8"/>
</svg>
