<svg width="20" height="21" viewBox="0 0 20 21" fill="none" xmlns="http://www.w3.org/2000/svg">
<path d="M10.0003 18.7211C14.6027 18.7211 18.3337 14.9901 18.3337 10.3878C18.3337 5.7854 14.6027 2.05444 10.0003 2.05444C5.39795 2.05444 1.66699 5.7854 1.66699 10.3878C1.66699 11.5369 1.89955 12.6316 2.32018 13.6275C2.55264 14.1779 2.66888 14.4531 2.68327 14.6611C2.69766 14.8691 2.63644 15.0979 2.51401 15.5554L1.66699 18.7211L4.83263 17.8741C5.29022 17.7517 5.51902 17.6904 5.72701 17.7049C5.935 17.7192 6.2102 17.8354 6.76062 18.0679C7.75653 18.4885 8.85124 18.7211 10.0003 18.7211Z" stroke="white" stroke-width="1.5" stroke-linejoin="round"/>
<path d="M7.15647 10.702L7.88225 9.80061C8.18814 9.4207 8.56626 9.06703 8.59592 8.56116C8.60334 8.4334 8.51351 7.85976 8.33367 6.7125C8.26302 6.26162 7.84206 6.22095 7.47744 6.22095C7.00229 6.22095 6.76472 6.22095 6.5288 6.32871C6.23062 6.46491 5.9245 6.84787 5.85732 7.16872C5.80417 7.42258 5.84367 7.59751 5.92267 7.94736C6.2582 9.43328 7.04535 10.9008 8.26591 12.1214C9.48651 13.3419 10.954 14.1291 12.4399 14.4646C12.7898 14.5436 12.9647 14.5831 13.2186 14.5299C13.5394 14.4628 13.9223 14.1567 14.0586 13.8584C14.1663 13.6225 14.1663 13.385 14.1663 12.9099C14.1663 12.5452 14.1257 12.1243 13.6748 12.0536C12.5275 11.8738 11.9539 11.7839 11.8261 11.7914C11.3203 11.821 10.9666 12.1991 10.5867 12.505L9.68526 13.2308" stroke="white" stroke-width="1.5"/>
</svg>
