<svg xmlns="http://www.w3.org/2000/svg" width="22" height="23" viewBox="0 0 22 23" fill="none">
  <path d="M15.5837 2.22119V4.97119M6.41699 2.22119V4.97119" stroke="#253993" stroke-width="1.5" stroke-linecap="round" stroke-linejoin="round"/>
  <path d="M11.9167 3.59595H10.0833C6.62636 3.59595 4.89789 3.59595 3.82394 4.66989C2.75 5.74383 2.75 7.47231 2.75 10.9293V13.2209C2.75 16.6779 2.75 18.4064 3.82394 19.4803C4.89789 20.5543 6.62636 20.5543 10.0833 20.5543H11.9167C15.3736 20.5543 17.1022 20.5543 18.176 19.4803C19.25 18.4064 19.25 16.6779 19.25 13.2209V10.9293C19.25 7.47231 19.25 5.74383 18.176 4.66989C17.1022 3.59595 15.3736 3.59595 11.9167 3.59595Z" stroke="#253993" stroke-width="1.5" stroke-linecap="round" stroke-linejoin="round"/>
  <path d="M3.20801 8.1792H18.7913" stroke="#253993" stroke-width="1.5" stroke-linecap="round" stroke-linejoin="round"/>
  <path d="M8.25 14.5959C8.25 14.5959 9.625 15.0543 10.0833 16.4293C10.0833 16.4293 12.0785 12.7626 14.6667 11.8459" stroke="#253993" stroke-width="1.5" stroke-linecap="round" stroke-linejoin="round"/>
</svg>