<svg xmlns="http://www.w3.org/2000/svg" width="23" height="23" viewBox="0 0 23 23" fill="none">
  <path d="M16.0833 2.33313V5.08313M6.91666 2.33313V5.08313" stroke="white" stroke-width="1.5" stroke-linecap="round" stroke-linejoin="round"/>
  <path d="M12.4167 3.70813H10.5833C7.12636 3.70813 5.39789 3.70813 4.32394 4.78207C3.25 5.85602 3.25 7.58449 3.25 11.0415V13.3331C3.25 16.7901 3.25 18.5186 4.32394 19.5925C5.39789 20.6665 7.12636 20.6665 10.5833 20.6665H12.4167C15.8736 20.6665 17.6022 20.6665 18.676 19.5925C19.75 18.5186 19.75 16.7901 19.75 13.3331V11.0415C19.75 7.58449 19.75 5.85602 18.676 4.78207C17.6022 3.70813 15.8736 3.70813 12.4167 3.70813Z" stroke="white" stroke-width="1.5" stroke-linecap="round" stroke-linejoin="round"/>
  <path d="M3.70834 8.29138H19.2917" stroke="white" stroke-width="1.5" stroke-linecap="round" stroke-linejoin="round"/>
  <path d="M8.75 14.7081C8.75 14.7081 10.125 15.1665 10.5833 16.5415C10.5833 16.5415 12.5785 12.8748 15.1667 11.9581" stroke="white" stroke-width="1.5" stroke-linecap="round" stroke-linejoin="round"/>
</svg>