<svg width="26" height="26" viewBox="0 0 26 26" fill="none" xmlns="http://www.w3.org/2000/svg">
<path d="M13.2039 2.31182C16.6135 2.31182 17.0173 2.32459 18.3643 2.38601C19.1741 2.39592 19.9763 2.54463 20.7359 2.82567C21.2867 3.03811 21.787 3.36354 22.2045 3.78101C22.6219 4.19848 22.9474 4.69874 23.1598 5.24959C23.4409 6.00919 23.5896 6.81135 23.5995 7.62121C23.6603 8.96817 23.6737 9.37196 23.6737 12.7816C23.6737 16.1913 23.6609 16.5951 23.5995 17.942C23.5896 18.7519 23.4409 19.554 23.1598 20.3136C22.9474 20.8645 22.6219 21.3648 22.2045 21.7822C21.787 22.1997 21.2867 22.5251 20.7359 22.7376C19.9763 23.0186 19.1741 23.1673 18.3643 23.1772C17.0179 23.238 16.6141 23.2514 13.2039 23.2514C9.79359 23.2514 9.38981 23.2386 8.04346 23.1772C7.2336 23.1673 6.43143 23.0186 5.67184 22.7376C5.12099 22.5251 4.62073 22.1997 4.20326 21.7822C3.78579 21.3648 3.46036 20.8645 3.24792 20.3136C2.96688 19.554 2.81817 18.7519 2.80826 17.942C2.74745 16.5951 2.73407 16.1913 2.73407 12.7816C2.73407 9.37196 2.74684 8.96817 2.80826 7.62121C2.81817 6.81135 2.96688 6.00919 3.24792 5.24959C3.46036 4.69874 3.78579 4.19848 4.20326 3.78101C4.62073 3.36354 5.12099 3.03811 5.67184 2.82567C6.43143 2.54463 7.2336 2.39592 8.04346 2.38601C9.39042 2.3252 9.7942 2.31182 13.2039 2.31182ZM13.2039 0.0107422C9.73765 0.0107422 9.30103 0.0253367 7.93886 0.0873638C6.87896 0.108446 5.83031 0.309129 4.83751 0.680877C3.98585 1.00176 3.21447 1.5046 2.57717 2.15432C1.92686 2.79185 1.42359 3.56367 1.10251 4.41588C0.730764 5.40867 0.530081 6.45732 0.508999 7.51723C0.448188 8.87817 0.433594 9.3148 0.433594 12.781C0.433594 16.2472 0.448188 16.6838 0.510215 18.046C0.531297 19.1059 0.731981 20.1546 1.10373 21.1474C1.42445 21.9995 1.9273 22.7713 2.57717 23.4089C3.21482 24.0588 3.98664 24.5616 4.83873 24.8824C5.83152 25.2541 6.88018 25.4548 7.94008 25.4759C9.30224 25.5367 9.73704 25.5525 13.2051 25.5525C16.6731 25.5525 17.1079 25.5379 18.4701 25.4759C19.53 25.4548 20.5786 25.2541 21.5714 24.8824C22.4195 24.5536 23.1896 24.0515 23.8325 23.4082C24.4755 22.7649 24.977 21.9944 25.3052 21.1461C25.677 20.1534 25.8776 19.1047 25.8987 18.0448C25.9595 16.6838 25.9741 16.2472 25.9741 12.781C25.9741 9.3148 25.9595 8.87817 25.8975 7.51601C25.8764 6.45611 25.6757 5.40746 25.304 4.41466C24.9833 3.56257 24.4804 2.79075 23.8306 2.15311C23.1929 1.50323 22.4211 1.00038 21.569 0.679661C20.5762 0.307913 19.5275 0.107229 18.4676 0.0861476C17.1067 0.0253368 16.6701 0.0107422 13.2039 0.0107422Z" fill="#F4F5F8"/>
<path d="M13.2063 6.22583C11.9093 6.22583 10.6414 6.61044 9.56294 7.33103C8.48451 8.05161 7.64397 9.0758 7.14763 10.2741C6.65128 11.4724 6.52141 12.7909 6.77445 14.063C7.02748 15.3351 7.65206 16.5036 8.56919 17.4208C9.48632 18.3379 10.6548 18.9625 11.9269 19.2155C13.199 19.4685 14.5176 19.3387 15.7159 18.8423C16.9141 18.346 17.9383 17.5054 18.6589 16.427C19.3795 15.3486 19.7641 14.0807 19.7641 12.7837C19.7641 11.0444 19.0732 9.37641 17.8434 8.14658C16.6135 6.91674 14.9455 6.22583 13.2063 6.22583ZM13.2063 17.0404C12.3644 17.0404 11.5414 16.7908 10.8414 16.323C10.1413 15.8553 9.59573 15.1905 9.27355 14.4127C8.95136 13.6348 8.86707 12.7789 9.03131 11.9532C9.19556 11.1275 9.60098 10.369 10.1963 9.77369C10.7916 9.17837 11.5501 8.77295 12.3758 8.6087C13.2016 8.44446 14.0574 8.52875 14.8353 8.85094C15.6131 9.17312 16.2779 9.71872 16.7456 10.4187C17.2134 11.1188 17.463 11.9418 17.463 12.7837C17.463 13.9126 17.0146 14.9954 16.2163 15.7936C15.418 16.5919 14.3352 17.0404 13.2063 17.0404Z" fill="#F4F5F8"/>
<path d="M20.0217 7.49748C20.868 7.49748 21.5541 6.81139 21.5541 5.96505C21.5541 5.11871 20.868 4.43262 20.0217 4.43262C19.1754 4.43262 18.4893 5.11871 18.4893 5.96505C18.4893 6.81139 19.1754 7.49748 20.0217 7.49748Z" fill="#F4F5F8"/>
</svg>
