<svg xmlns="http://www.w3.org/2000/svg" width="22" height="22" viewBox="0 0 22 22" fill="none">
  <path fill-rule="evenodd" clip-rule="evenodd" d="M11 2.42261C14.3862 2.42261 17.125 5.16136 17.125 8.54761C17.125 13.1414 11 19.9226 11 19.9226C11 19.9226 4.875 13.1414 4.875 8.54761C4.875 5.16136 7.61375 2.42261 11 2.42261ZM6.625 8.54761C6.625 11.0414 9.18 14.8564 11 17.1926C12.855 14.8389 15.375 11.0676 15.375 8.54761C15.375 6.13261 13.415 4.17261 11 4.17261C8.585 4.17261 6.625 6.13261 6.625 8.54761ZM11 10.7351C9.79188 10.7351 8.8125 9.75573 8.8125 8.54761C8.8125 7.33948 9.79188 6.36011 11 6.36011C12.2081 6.36011 13.1875 7.33948 13.1875 8.54761C13.1875 9.75573 12.2081 10.7351 11 10.7351Z" fill="#253993"/>
</svg>