<svg xmlns="http://www.w3.org/2000/svg" width="20" height="21" viewBox="0 0 20 21" fill="none">
  <path d="M10.833 2.8877C14.5149 2.8877 17.4997 5.87246 17.4997 9.55436M11.2497 5.80436C13.0906 5.80436 14.583 7.29674 14.583 9.13769" stroke="white" stroke-width="1.5" stroke-linecap="round" stroke-linejoin="round"/>
  <path d="M7.63188 5.14789L7.29633 4.3929C7.07693 3.89926 6.96723 3.65243 6.80317 3.46354C6.59756 3.22681 6.32956 3.05265 6.02973 2.9609C5.79048 2.8877 5.52038 2.8877 4.98018 2.8877C4.18993 2.8877 3.79479 2.8877 3.46311 3.0396C3.07239 3.21855 2.71953 3.6071 2.57894 4.0132C2.45959 4.35794 2.49378 4.71222 2.56215 5.42078C3.28993 12.9629 7.42484 17.0978 14.9669 17.8255C15.6755 17.8939 16.0298 17.9281 16.3745 17.8088C16.7806 17.6682 17.1692 17.3153 17.3481 16.9246C17.5 16.5929 17.5 16.1978 17.5 15.4075C17.5 14.8673 17.5 14.5972 17.4268 14.3579C17.3351 14.0581 17.1609 13.7901 16.9242 13.5845C16.7352 13.4204 16.4884 13.3108 15.9948 13.0914L15.2398 12.7558C14.7052 12.5182 14.4379 12.3994 14.1663 12.3736C13.9063 12.3489 13.6443 12.3854 13.4009 12.4801C13.1467 12.5791 12.9219 12.7664 12.4725 13.1409C12.0251 13.5137 11.8014 13.7001 11.5281 13.7999C11.2858 13.8884 10.9655 13.9213 10.7103 13.8836C10.4224 13.8412 10.2019 13.7234 9.76108 13.4878C8.38933 12.7548 7.63294 11.9984 6.89988 10.6266C6.66428 10.1858 6.54648 9.96528 6.50406 9.67745C6.46645 9.4222 6.49923 9.10186 6.58775 8.85961C6.6876 8.58626 6.87401 8.36258 7.24683 7.9152C7.62135 7.46576 7.80862 7.24105 7.90763 6.98679C8.00238 6.74348 8.03884 6.48136 8.01412 6.22143C7.98828 5.9498 7.86948 5.6825 7.63188 5.14789Z" stroke="white" stroke-width="1.5" stroke-linecap="round"/>
</svg>