<svg xmlns="http://www.w3.org/2000/svg" width="50" height="50" viewBox="0 0 50 50" fill="none">
  <path d="M18.75 27.0833C18.75 27.0833 20.8333 27.0833 22.9167 31.25C22.9167 31.25 29.5344 20.8333 35.4167 18.75" stroke="#5170FF" stroke-width="4" stroke-linecap="round" stroke-linejoin="round"/>
  <path d="M43.75 23.2985V17.2506C43.75 13.8339 43.75 12.1256 42.9081 11.011C42.0662 9.89644 40.1627 9.35533 36.3556 8.27312C33.7546 7.53375 31.4617 6.64298 29.6298 5.82977C27.1321 4.72104 25.8833 4.16667 25 4.16667C24.1167 4.16667 22.8679 4.72104 20.3702 5.82977C18.5383 6.64298 16.2455 7.53373 13.6444 8.27312C9.83735 9.35533 7.93379 9.89644 7.0919 11.011C6.25 12.1256 6.25 13.8339 6.25 17.2506V23.2985C6.25 35.0177 16.7974 42.049 22.0708 44.8321C23.3356 45.4996 23.9679 45.8333 25 45.8333C26.0321 45.8333 26.6644 45.4996 27.9292 44.8321C33.2025 42.049 43.75 35.0177 43.75 23.2985Z" stroke="#5170FF" stroke-width="4" stroke-linecap="round"/>
</svg>