<svg xmlns="http://www.w3.org/2000/svg" width="20" height="20" viewBox="0 0 20 20" fill="none">
  <path d="M10.8333 2.5C14.5153 2.5 17.5 5.48477 17.5 9.16667M11.25 5.41667C13.0909 5.41667 14.5833 6.90905 14.5833 8.75" stroke="white" stroke-width="1.5" stroke-linecap="round" stroke-linejoin="round"/>
  <path d="M7.63188 4.76019L7.29633 4.00521C7.07693 3.51157 6.96723 3.26473 6.80317 3.07584C6.59756 2.83912 6.32956 2.66495 6.02973 2.57321C5.79048 2.5 5.52038 2.5 4.98018 2.5C4.18993 2.5 3.79479 2.5 3.46311 2.65191C3.07239 2.83085 2.71953 3.2194 2.57894 3.6255C2.45959 3.97024 2.49378 4.32453 2.56215 5.03308C3.28993 12.5752 7.42484 16.7101 14.9669 17.4378C15.6755 17.5063 16.0298 17.5404 16.3745 17.4211C16.7806 17.2805 17.1692 16.9276 17.3481 16.5369C17.5 16.2052 17.5 15.8101 17.5 15.0198C17.5 14.4796 17.5 14.2095 17.4268 13.9703C17.3351 13.6704 17.1609 13.4024 16.9242 13.1968C16.7352 13.0328 16.4884 12.9231 15.9948 12.7037L15.2398 12.3681C14.7052 12.1305 14.4379 12.0118 14.1663 11.9859C13.9063 11.9612 13.6443 11.9977 13.4009 12.0924C13.1467 12.1914 12.9219 12.3787 12.4725 12.7532C12.0251 13.126 11.8014 13.3124 11.5281 13.4123C11.2858 13.5008 10.9655 13.5336 10.7103 13.4959C10.4224 13.4535 10.2019 13.3358 9.76108 13.1001C8.38933 12.3671 7.63294 11.6107 6.89988 10.2389C6.66428 9.79808 6.54648 9.57758 6.50406 9.28975C6.46645 9.0345 6.49923 8.71417 6.58775 8.47192C6.6876 8.19857 6.87401 7.97488 7.24683 7.5275C7.62135 7.07807 7.80862 6.85335 7.90763 6.59909C8.00238 6.35578 8.03884 6.09367 8.01412 5.83373C7.98828 5.5621 7.86948 5.2948 7.63188 4.76019Z" stroke="white" stroke-width="1.5" stroke-linecap="round"/>
</svg>