<svg xmlns="http://www.w3.org/2000/svg" width="50" height="50" viewBox="0 0 50 50" fill="none">
  <path d="M25 15.625H28.125C29.8508 15.625 31.25 17.0241 31.25 18.75M25 15.625H21.875C20.1491 15.625 18.75 17.0241 18.75 18.75V19.7917C18.75 21.5175 20.1491 22.9167 21.875 22.9167H28.125C29.8508 22.9167 31.25 24.3158 31.25 26.0417V27.0833C31.25 28.8092 29.8508 30.2083 28.125 30.2083H25M25 15.625V12.5M25 30.2083H21.875C20.1491 30.2083 18.75 28.8092 18.75 27.0833M25 30.2083V33.3333" stroke="#5170FF" stroke-width="4" stroke-linecap="round" stroke-linejoin="round"/>
  <path d="M22.7918 44.8175L18.8108 42.3069C17.8005 41.6696 17.2953 41.351 16.7346 41.3327C16.1287 41.3127 15.6146 41.6183 14.5228 42.3069C13.3001 43.0779 10.8686 45.2023 9.29589 44.1892C8.3335 43.5694 8.3335 41.9948 8.3335 38.8454V16.6667C8.3335 10.7741 8.3335 7.82783 10.0564 5.99725C11.7793 4.16667 14.5523 4.16667 20.0982 4.16667H29.902C35.4481 4.16667 38.221 4.16667 39.9439 5.99725C41.6668 7.82783 41.6668 10.7741 41.6668 16.6667V38.8454C41.6668 41.9948 41.6668 43.5694 40.7043 44.1892C39.1316 45.2023 36.7004 43.0779 35.4775 42.3069C34.467 41.6696 33.962 41.351 33.4012 41.3327C32.7954 41.3127 32.2812 41.6183 31.1895 42.3069L27.2085 44.8175C26.1345 45.4946 25.5977 45.8333 25.0002 45.8333C24.4027 45.8333 23.8656 45.4946 22.7918 44.8175Z" stroke="#5170FF" stroke-width="4" stroke-linecap="round" stroke-linejoin="round"/>
</svg>