<svg width="27" height="22" viewBox="0 0 27 22" fill="none" xmlns="http://www.w3.org/2000/svg">
<path d="M26.5236 3.00312C25.5381 3.44111 24.4979 3.71486 23.4029 3.8791C24.4979 3.22212 25.3738 2.18189 25.7571 0.92267C24.7168 1.52491 23.5671 1.9629 22.3079 2.23664C21.3224 1.19641 19.899 0.539429 18.366 0.539429C15.4096 0.539429 13.0006 2.94838 13.0006 5.90481C13.0006 6.3428 13.0554 6.72604 13.1649 7.10928C8.7302 6.89029 4.73354 4.75509 2.05085 1.47016C1.61286 2.29139 1.33912 3.16737 1.33912 4.15285C1.33912 6.01431 2.26985 7.65677 3.74806 8.64225C2.87208 8.5875 2.05085 8.36851 1.28437 7.98526V8.04001C1.28437 10.668 3.14583 12.8579 5.60952 13.3506C5.17153 13.4601 4.67879 13.5149 4.18605 13.5149C3.85756 13.5149 3.47432 13.4601 3.14583 13.4054C3.85756 15.5406 5.82852 17.1283 8.18271 17.1283C6.32126 18.5518 4.02181 19.4278 1.50336 19.4278C1.06537 19.4278 0.627382 19.4278 0.244141 19.373C2.65309 20.906 5.44528 21.782 8.51121 21.782C18.4207 21.782 23.8409 13.5696 23.8409 6.4523C23.8409 6.2333 23.8409 5.95956 23.8409 5.74056C24.8811 5.02883 25.8118 4.0981 26.5236 3.00312Z" fill="#3953C9"/>
</svg>
