<svg width="22" height="18" viewBox="0 0 22 18" fill="none" xmlns="http://www.w3.org/2000/svg">
<path d="M21.0937 2.09222C20.3037 2.44329 19.4699 2.66271 18.5923 2.79436C19.4699 2.26775 20.1721 1.43395 20.4793 0.42462C19.6455 0.907345 18.7239 1.25842 17.7146 1.47784C16.9247 0.644041 15.7837 0.117432 14.5549 0.117432C12.1852 0.117432 10.2543 2.04833 10.2543 4.41807C10.2543 4.76915 10.2982 5.07633 10.3859 5.38352C6.83133 5.20799 3.62779 3.49651 1.47747 0.863461C1.1264 1.52172 0.906979 2.22387 0.906979 3.01378C0.906979 4.50584 1.65301 5.82236 2.83788 6.61228C2.13573 6.56839 1.47747 6.39286 0.863095 6.08567V6.12955C0.863095 8.23599 2.35515 9.99135 4.32994 10.3863C3.97886 10.4741 3.58391 10.518 3.18895 10.518C2.92565 10.518 2.61846 10.4741 2.35515 10.4302C2.92565 12.1417 4.50547 13.4143 6.39249 13.4143C4.90043 14.5553 3.0573 15.2574 1.03863 15.2574C0.687558 15.2574 0.336485 15.2574 0.0292969 15.2136C1.9602 16.4423 4.19829 17.1445 6.65579 17.1445C14.5988 17.1445 18.9433 10.5618 18.9433 4.85691C18.9433 4.68138 18.9433 4.46196 18.9433 4.28642C19.7771 3.71593 20.5232 2.9699 21.0937 2.09222Z" fill="#F4F5F8"/>
</svg>
