<svg xmlns="http://www.w3.org/2000/svg" width="21" height="22" viewBox="0 0 21 22" fill="none">
  <path d="M10.5 19.4226C15.3324 19.4226 19.25 15.5051 19.25 10.6726C19.25 5.84011 15.3324 1.92261 10.5 1.92261C5.66751 1.92261 1.75 5.84011 1.75 10.6726C1.75 11.8791 1.99419 13.0286 2.43584 14.0743C2.67993 14.6522 2.80198 14.9412 2.81709 15.1596C2.8322 15.378 2.76792 15.6182 2.63937 16.0987L1.75 19.4226L5.07392 18.5333C5.55439 18.4047 5.79463 18.3404 6.01302 18.3555C6.23141 18.3706 6.52037 18.4927 7.09831 18.7368C8.14402 19.1784 9.29346 19.4226 10.5 19.4226Z" stroke="#253993" stroke-width="1.5" stroke-linejoin="round"/>
  <path d="M7.51463 11.0027L8.2767 10.0563C8.59789 9.65734 8.99491 9.28599 9.02606 8.75483C9.03385 8.62068 8.93953 8.01836 8.7507 6.81373C8.67651 6.34032 8.2345 6.29761 7.85166 6.29761C7.35275 6.29761 7.10329 6.29761 6.85558 6.41075C6.5425 6.55376 6.22107 6.95588 6.15052 7.29277C6.09472 7.55932 6.13619 7.74299 6.21914 8.11034C6.57145 9.67056 7.39796 11.2114 8.67955 12.493C9.96118 13.7747 11.502 14.6012 13.0623 14.9535C13.4296 15.0364 13.6133 15.0779 13.8799 15.0221C14.2167 14.9515 14.6188 14.6301 14.7619 14.317C14.875 14.0693 14.875 13.8199 14.875 13.321C14.875 12.9381 14.8323 12.4961 14.3588 12.4219C13.1542 12.2331 12.552 12.1388 12.4177 12.1465C11.8866 12.1777 11.5153 12.5747 11.1164 12.8959L10.1699 13.6579" stroke="#253993" stroke-width="1.5"/>
</svg>